<svg width="50" height="50" viewBox="0 0 50 50" fill="none" xmlns="http://www.w3.org/2000/svg">
<path d="M48.5791 20.4952C48.8731 22.167 49.0108 23.8756 49.0108 25.575C49.0108 33.1808 46.2918 39.6109 41.5612 43.9649H41.5704C37.4276 47.7862 31.7415 50 24.9992 50C15.547 50 6.90313 44.6722 2.65929 36.2305C-0.886426 29.1666 -0.886433 20.8443 2.65929 13.7804C6.90313 5.32945 15.547 0.00168466 24.9992 0.00168466C31.2088 -0.0718018 37.2071 2.26139 41.7265 6.50523L34.5891 13.6426C32.0079 11.1808 28.5633 9.83968 24.9992 9.89479C18.4772 9.89479 12.9382 14.2948 10.9633 20.2196C9.91607 23.3244 9.91607 26.6864 10.9633 29.7912H10.9724C12.9566 35.7069 18.4864 40.1069 25.0084 40.1069C28.3795 40.1069 31.2731 39.2434 33.5144 37.7186H33.5052C36.1415 35.9733 37.942 33.2267 38.5023 30.1219H24.9992V20.4952H48.5791Z" fill="#9F4141"/>
</svg>
