<svg width="50" height="48" viewBox="0 0 50 48" fill="none" xmlns="http://www.w3.org/2000/svg">
<path d="M25.0023 0C18.2127 0 17.3606 0.0281389 14.6939 0.143161C12.0324 0.258676 10.2157 0.658044 8.62613 1.24401C6.98184 1.84924 5.58704 2.65883 4.19744 3.9764C2.8068 5.29348 1.95262 6.61549 1.31199 8.17346C0.692194 9.6806 0.270315 11.403 0.150522 13.9246C0.0312501 16.4521 0 17.2602 0 23.6955C0 30.1308 0.0302091 30.936 0.151044 33.4635C0.273441 35.9861 0.694799 37.7079 1.31251 39.2146C1.95158 40.773 2.80576 42.0951 4.19588 43.4121C5.58495 44.7302 6.97976 45.5418 8.62301 46.147C10.2136 46.733 12.0309 47.1323 14.6918 47.2478C17.3585 47.3629 18.2101 47.391 24.9992 47.391C31.7894 47.391 32.6389 47.3629 35.3056 47.2478C37.9671 47.1323 39.7858 46.733 41.3765 46.147C43.0202 45.5418 44.413 44.7302 45.802 43.4121C47.1927 42.0951 48.0469 40.773 48.6875 39.2151C49.3021 37.7079 49.724 35.9856 49.849 33.464C49.9687 30.9364 50 30.1308 50 23.6955C50 17.2602 49.9687 16.4526 49.849 13.9251C49.724 11.4025 49.3021 9.6806 48.6875 8.17396C48.0469 6.61549 47.1927 5.29348 45.802 3.9764C44.4114 2.65834 43.0208 1.84874 41.3749 1.24401C39.7811 0.658044 37.9634 0.258676 35.3019 0.143161C32.6352 0.0281389 31.7863 0 24.9945 0H25.0023ZM22.7596 4.27013C23.4252 4.26914 24.168 4.27013 25.0023 4.27013C31.6774 4.27013 32.4686 4.29283 35.1045 4.40638C37.5421 4.51202 38.865 4.89806 39.7462 5.22239C40.9129 5.65187 41.7447 6.16527 42.6192 6.99461C43.4942 7.82396 44.0359 8.61381 44.49 9.7196C44.8322 10.5539 45.2401 11.8078 45.351 14.1181C45.4708 16.616 45.4968 17.3663 45.4968 23.6901C45.4968 30.0138 45.4708 30.7642 45.351 33.2621C45.2395 35.5724 44.8322 36.8263 44.49 37.6605C44.0369 38.7663 43.4942 39.5537 42.6192 40.3826C41.7442 41.2119 40.9134 41.7253 39.7462 42.1548C38.866 42.4806 37.5421 42.8656 35.1045 42.9713C32.4691 43.0848 31.6774 43.1095 25.0023 43.1095C18.3268 43.1095 17.5356 43.0848 14.9002 42.9713C12.4626 42.8647 11.1397 42.4786 10.2579 42.1543C9.09124 41.7248 8.2579 41.2114 7.38289 40.3821C6.50788 39.5527 5.96621 38.7648 5.51204 37.6586C5.16985 36.8243 4.76203 35.5704 4.65109 33.2601C4.5313 30.7622 4.50734 30.0118 4.50734 23.6841C4.50734 17.3565 4.5313 16.6101 4.65109 14.1122C4.76255 11.8018 5.16985 10.548 5.51204 9.71269C5.96517 8.6069 6.50788 7.81705 7.38289 6.9877C8.2579 6.15836 9.09124 5.64496 10.2579 5.21449C11.1392 4.88868 12.4626 4.50363 14.9002 4.39749C17.2064 4.29876 18.1002 4.26914 22.7596 4.2642V4.27013ZM38.3473 8.20457C36.691 8.20457 35.3472 9.47672 35.3472 11.047C35.3472 12.6169 36.691 13.8905 38.3473 13.8905C40.0035 13.8905 41.3473 12.6169 41.3473 11.047C41.3473 9.47721 40.0035 8.20358 38.3473 8.20358V8.20457ZM25.0023 11.5269C17.9122 11.5269 12.1637 16.9754 12.1637 23.6955C12.1637 30.4156 17.9122 35.8617 25.0023 35.8617C32.0925 35.8617 37.8389 30.4156 37.8389 23.6955C37.8389 16.9754 32.092 11.5269 25.0018 11.5269H25.0023ZM25.0023 15.797C29.6045 15.797 33.3358 19.3331 33.3358 23.6955C33.3358 28.0574 29.6045 31.594 25.0023 31.594C20.3997 31.594 16.6689 28.0574 16.6689 23.6955C16.6689 19.3331 20.3997 15.797 25.0023 15.797Z" fill="#9F4141"/>
</svg>
