<svg width="50" height="50" viewBox="0 0 50 50" fill="none" xmlns="http://www.w3.org/2000/svg">
<path d="M19.2722 24.9999C17.8402 24.9999 16.6767 26.1634 16.6767 27.5954C16.6767 29.0274 17.8402 30.2207 19.2722 30.1909C20.7042 30.1909 21.8677 29.0274 21.8677 27.5954C21.8677 26.1634 20.7042 24.9999 19.2722 24.9999Z" fill="#9F4141"/>
<path d="M25.03 36.3961C26.0144 36.3961 29.4154 36.2768 31.2054 34.4868C31.444 34.2183 31.444 33.8007 31.2054 33.5322C30.9369 33.2637 30.5192 33.2637 30.2507 33.5322C29.1469 34.6658 26.7304 35.0536 25.03 35.0536C23.3295 35.0536 20.9428 34.6658 19.8092 33.5322C19.5407 33.2637 19.123 33.2637 18.8545 33.5322C18.586 33.8007 18.586 34.2183 18.8545 34.4868C20.6147 36.247 24.0156 36.3961 25.03 36.3961Z" fill="#9F4141"/>
<path d="M28.1326 27.6252C28.1326 29.0572 29.2961 30.2207 30.728 30.2207C32.16 30.2207 33.3235 29.0274 33.3235 27.6252C33.3235 26.1933 32.16 25.0298 30.728 25.0298C29.2961 25.0298 28.1326 26.1933 28.1326 27.6252Z" fill="#9F4141"/>
<path d="M50 25C50 38.8071 38.8071 50 25 50C11.1929 50 0 38.8071 0 25C0 11.1929 11.1929 0 25 0C38.8071 0 50 11.1929 50 25ZM38.0371 21.3603C37.0526 21.3603 36.1576 21.7482 35.5013 22.3746C32.9953 20.5847 29.5646 19.4212 25.7459 19.272L27.4166 11.4558L32.8462 12.6193C32.9059 13.9916 34.0395 15.0954 35.4417 15.0954C36.8736 15.0954 38.0371 13.9319 38.0371 12.4999C38.0371 11.068 36.8736 9.90448 35.4417 9.90448C34.4273 9.90448 33.5323 10.5011 33.1147 11.3663L27.0586 10.0835C26.8796 10.0536 26.7006 10.0835 26.5813 10.173C26.4321 10.2625 26.3426 10.4116 26.3128 10.5906L24.4631 19.3019C20.5849 19.4212 17.0944 20.5847 14.5586 22.4045C13.9023 21.778 13.0073 21.3902 12.0228 21.3902C9.99416 21.3902 8.38318 23.031 8.38318 25.0298C8.38318 26.5214 9.27817 27.7744 10.5312 28.3412C10.4715 28.6992 10.4417 29.0572 10.4417 29.4451C10.4417 35.0536 16.9751 39.6181 25.03 39.6181C33.0849 39.6181 39.6183 35.0835 39.6183 29.4451C39.6183 29.0871 39.5884 28.6992 39.5288 28.3412C40.7817 27.7744 41.6767 26.4916 41.6767 24.9999C41.6767 22.9713 40.0359 21.3603 38.0371 21.3603Z" fill="#9F4141"/>
</svg>
