<svg width="50" height="48" viewBox="0 0 50 48" fill="none" xmlns="http://www.w3.org/2000/svg">
<path d="M28.125 3.01892e-05L34.3143 0C34.7612 2.11782 36.0019 4.78962 38.172 7.44022C40.2983 10.0374 43.116 11.8478 46.875 11.8478V17.7717C41.3957 17.7717 37.2783 15.3619 34.375 12.3554V32.5813C34.375 40.7605 27.3794 47.391 18.75 47.391C10.1205 47.391 3.125 40.7605 3.125 32.5813C3.125 24.4022 10.1206 17.7717 18.75 17.7717V23.6955C13.5723 23.6955 9.375 27.6738 9.375 32.5813C9.375 37.4888 13.5723 41.4672 18.75 41.4672C23.9277 41.4672 28.125 37.4888 28.125 32.5813V3.01892e-05Z" fill="#9F4141"/>
</svg>
