<svg width="50" height="50" viewBox="0 0 50 50" fill="none" xmlns="http://www.w3.org/2000/svg">
<path d="M15.7063 46.875C34.5738 46.875 44.898 31.2408 44.898 17.7058C44.898 17.2659 44.898 16.8261 44.8779 16.3863C46.8787 14.9468 48.6194 13.1275 50 11.0682C48.1593 11.8879 46.1785 12.4277 44.0976 12.6876C46.2185 11.4281 47.8391 9.40883 48.6194 7.00972C46.6387 8.18928 44.4378 9.02897 42.0968 9.4888C40.2161 7.48954 37.555 6.25 34.6138 6.25C28.9516 6.25 24.3497 10.8483 24.3497 16.5062C24.3497 17.3059 24.4498 18.0856 24.6098 18.8453C16.0864 18.4255 8.52341 14.327 3.46139 8.12931C2.58103 9.64875 2.08083 11.4081 2.08083 13.2874C2.08083 16.8461 3.90156 19.9849 6.64266 21.8242C4.96199 21.7643 3.38135 21.3044 2.0008 20.5447C2.0008 20.5847 2.0008 20.6247 2.0008 20.6847C2.0008 25.6428 5.54222 29.8013 10.2241 30.741C9.36375 30.9809 8.46339 31.1008 7.52301 31.1008C6.86274 31.1008 6.22249 31.0408 5.60224 30.9209C6.90276 34.9994 10.7043 37.9583 15.1861 38.0383C11.6647 40.7972 7.2429 42.4366 2.44098 42.4366C1.62065 42.4366 0.80032 42.3967 0 42.2967C4.52181 45.1756 9.92397 46.875 15.7063 46.875Z" fill="#9F4141"/>
</svg>
