<svg width="50" height="50" viewBox="0 0 50 50" fill="none" xmlns="http://www.w3.org/2000/svg">
<path d="M25.1599 6.24609C25.1776 6.24613 25.1968 6.24618 25.2174 6.24623L25.4386 6.24692C28.0067 6.25635 41.0227 6.3507 44.532 7.29416C46.6834 7.87118 48.3774 9.57166 48.9524 11.7302C49.2689 12.9161 49.4896 14.4924 49.6433 16.1135L49.6732 16.4382C49.6974 16.7091 49.7197 16.9807 49.7404 17.2512L49.7644 17.5753C49.9698 20.4318 49.9938 23.105 49.9966 23.6898L49.9969 23.7687C49.9969 23.7752 49.9969 23.7857 49.9969 23.7857V23.83C49.9969 23.83 49.9969 23.8406 49.9969 23.8471L49.9966 23.926C49.9937 24.5329 49.968 27.3888 49.7404 30.3648L49.7148 30.6898L49.6875 31.0152C49.5327 32.8044 49.3006 34.5812 48.9524 35.8856C48.3774 38.0441 46.6834 39.745 44.532 40.3216C40.9057 41.2969 27.1284 41.3652 25.2174 41.37L25.0702 41.3703C25.0581 41.3703 25.0475 41.3703 25.0384 41.3703L24.9784 41.3703C24.9784 41.3703 24.9646 41.3703 24.9554 41.3703L24.7764 41.37C23.8107 41.3676 19.8143 41.3489 15.6291 41.2052L15.094 41.1862C15.0047 41.1829 14.9154 41.1795 14.8261 41.1761L14.2904 41.155L13.7559 41.1323C10.2887 40.9801 6.98288 40.7306 5.46216 40.3216C3.31084 39.745 1.61679 38.0441 1.04181 35.8856C0.693478 34.5812 0.461257 32.8044 0.306442 31.0152L0.279139 30.6898L0.253489 30.3648C0.034073 27.497 0.00222224 24.7408 -0.00240126 24.001L-0.00295375 23.8951C-0.00299252 23.8856 -0.00302483 23.8768 -0.00305176 23.8688V23.747C-0.00302483 23.739 -0.00299252 23.7302 -0.00295375 23.7207L-0.00240126 23.6148C0.00178606 22.9448 0.0283057 20.621 0.196264 18.0582L0.218004 17.7367C0.221753 17.683 0.225565 17.6292 0.229442 17.5753L0.253489 17.2512C0.274189 16.9807 0.296558 16.7091 0.320731 16.4382L0.350613 16.1135C0.504438 14.4924 0.725145 12.9161 1.04181 11.7302C1.61679 9.57166 3.31084 7.87118 5.46216 7.29416C6.98288 6.88533 10.2887 6.63594 13.7559 6.48381L14.2904 6.46116L14.8261 6.44C14.9154 6.4366 15.0047 6.43325 15.094 6.42996L15.6291 6.41094C19.5471 6.27644 23.2997 6.25153 24.5552 6.24692L24.7764 6.24623C24.797 6.24618 24.8162 6.24613 24.8339 6.24609H25.1599ZM19.997 16.2811V31.3347L32.9869 23.8083L19.997 16.2811Z" fill="#9F4141"/>
</svg>
